# xmcd CD database file
#
# Track frame offsets:
#	150
#	10288
#	22363
#	34202
#	48498
#	58482
#	68588
#	82997
#	97081
#	110860
#	122408
#	135138
#	143670
#	157242
#	168598
#	182500
#	194739
#	207570
#	221142
#	239543
#
# Disc length: 3268 seconds
#
# Revision: 3
# Processed by: cddbd v1.5.2PL0 Copyright (c) Steve Scherf et al.
# Submitted via: CDex 1.70beta2
#
DISCID=360cc214
DTITLE=Country Hits - Country Hits CD10
DYEAR=1900
DGENRE=Country
TTITLE0=Barbara Fairchild - Kid Stuff
TTITLE1=Bob Wills - Time Changes Everything
TTITLE2=Carl Perkins - Rise And Shine
TTITLE3=Don Williams - Long Walk From Childhood
TTITLE4=Furon Young - As Far As I'm Concerned
TTITLE5=Barbara Mandrell - Please Release Me
TTITLE6=Freddy Fender - Since I Met You Baby
TTITLE7=Frankie Laine - Don't Fence Me In
TTITLE8=Hoyt Axton - Lonesome Road
TTITLE9=John Brack and Jeff Turner - I Joined The Party Of The Lord
TTITLE10=Kitty Wells - This White Circle
TTITLE11=Mickey Gilley - Is It Wrong
TTITLE12=Oak Ridge Quartet - Hide Thou Me
TTITLE13=Patsy Cline - The Heart You Brake Maybe Yours
TTITLE14=Porter Wagoner - Love Paid It All
TTITLE15=Razzy Bailey - Night Life
TTITLE16=Rex Allen Junior - No No No
TTITLE17=Johnny Paycheck - This Too Will Pass
TTITLE18=George Jones - Bartender Blues
TTITLE19=Tammy Wynette - Singing My Song
EXTD=
EXTT0=
EXTT1=
EXTT2=
EXTT3=
EXTT4=
EXTT5=
EXTT6=
EXTT7=
EXTT8=
EXTT9=
EXTT10=
EXTT11=
EXTT12=
EXTT13=
EXTT14=
EXTT15=
EXTT16=
EXTT17=
EXTT18=
EXTT19=
PLAYORDER=
